<svg width="11" height="11" viewBox="0 0 11 11" fill="none" xmlns="http://www.w3.org/2000/svg">
<path d="M5.5 0.916667C8.02725 0.916667 10.0833 2.97275 10.0833 5.5C10.0833 8.02725 8.02725 10.0833 5.5 10.0833C2.97275 10.0833 0.916667 8.02725 0.916667 5.5C0.916667 2.97275 2.97275 0.916667 5.5 0.916667ZM5.5 0C2.46263 0 0 2.46263 0 5.5C0 8.53737 2.46263 11 5.5 11C8.53737 11 11 8.53737 11 5.5C11 2.46263 8.53737 0 5.5 0ZM6.07292 7.79167C6.07292 8.10792 5.81671 8.36458 5.5 8.36458C5.18421 8.36458 4.92708 8.10792 4.92708 7.79167C4.92708 7.47542 5.18421 7.21875 5.5 7.21875C5.81671 7.21875 6.07292 7.47542 6.07292 7.79167ZM6.71137 3.20925C6.43271 2.92692 6.017 2.77154 5.54217 2.77154C4.543 2.77154 3.89675 3.48196 3.89675 4.58196H4.81846C4.81846 3.90087 5.19842 3.65933 5.52337 3.65933C5.81396 3.65933 6.12242 3.85229 6.14854 4.22125C6.17696 4.60946 5.96979 4.80654 5.70762 5.05587C5.06046 5.67142 5.04854 5.96933 5.05129 6.64537H5.97025C5.96429 6.34104 5.984 6.094 6.39879 5.64712C6.70908 5.31254 7.095 4.89637 7.10279 4.26204C7.10783 3.83854 6.97262 3.47417 6.71137 3.20925Z" fill="#464646"/>
</svg>
